<?xml version="1.0" encoding="UTF-8" standalone="no"?>
<!-- Created with Inkscape (http://www.inkscape.org/) -->

<svg
   width="128"
   height="64"
   viewBox="0 0 33.8666666666 16.9333333333"
   version="1.1"
   id="svg1"
   inkscape:version="1.3.2 (091e20e, 2023-11-25, custom)"
   sodipodi:docname="splash_logo.svg"
   inkscape:export-filename="foxglove logo.png"
   inkscape:export-xdpi="96"
   inkscape:export-ydpi="96"
   xmlns:inkscape="http://www.inkscape.org/namespaces/inkscape"
   xmlns:sodipodi="http://sodipodi.sourceforge.net/DTD/sodipodi-0.dtd"
   xmlns="http://www.w3.org/2000/svg"
   xmlns:svg="http://www.w3.org/2000/svg">
  <sodipodi:namedview
     id="namedview1"
     pagecolor="#ffffff"
     bordercolor="#000000"
     borderopacity="0.25"
     inkscape:showpageshadow="2"
     inkscape:pageopacity="0.0"
     inkscape:pagecheckerboard="0"
     inkscape:deskcolor="#d1d1d1"
     inkscape:document-units="mm"
     inkscape:zoom="5.4173823"
     inkscape:cx="64.9760309513"
     inkscape:cy="32.2111289801"
     inkscape:window-width="1920"
     inkscape:window-height="1017"
     inkscape:window-x="-8"
     inkscape:window-y="-8"
     inkscape:window-maximized="1"
     inkscape:current-layer="g19" />
  <defs
     id="defs1" />
  <g
     inkscape:label="Layer 1"
     inkscape:groupmode="layer"
     id="layer1">
    <g
       id="g19"
       transform="matrix(0.529683293379,0,0,0.529683293379,-15.0759371112,-7.07245136122)">
      <path
         id="path19"
         style="fill:#000000;stroke-width:0"
         d="m 87.986328125,33.1796875 c -9.7688440885,0.034414659 -19.5377566772,0.023558476 -29.306640625,0.0234375 -0.492448159,2.0550324628 -2.1969219731,4.1112970736 -4.466796875,4.068359375 -1.6712900689,0.027693847 -2.9206601901,-2.0062198768 -2.0714839282,-3.4728248734 0.1764784255,-0.3881425382 0.5049424752,-0.7512353914 -0.1824151536,-0.5928571638 -3.970436514,0.047327555 -7.9595071323,-0.1476316318 -11.9168100914,0.1627342305 -1.9303168525,0.6489375607 -2.3777882867,3.8464576866 -0.4459447612,4.8051194743 1.5644326533,0.8331420628 3.4210499544,0.2527627877 5.1275914239,0.4201733365 14.6623676851,-0.00680017 29.3250974853,0.046736481 43.9871093855,-0.080157504 2.1096858201,-0.4605367963 2.7527686957,-3.7724321144 0.8156921906,-4.8422242833 C 89.0799852727,33.3810135546 88.5147792246,33.2051610603 87.986328125,33.1796875 Z" />
      <path
         id="text2"
         style="font-size:4.93889px;font-family:'Rounds Black';-inkscape-font-specification:'Rounds Black, ';letter-spacing:0.0529167px;fill:#ffffff;stroke-width:0"
         d="m 44.826171875,34.21875 c -0.8093731269,0.1138355978 -1.1605101666,1.4233814591 -0.2342273562,1.6496325217 0.4099449339,0.1639697084 1.0706157392,0.1782285569 1.2400867312,0.6531018533 -0.2612494961,0.6495665559 -1.1239928741,0.3729427465 -1.5390625,0.041015625 -0.4922253996,-0.00343278 -0.3252102157,0.7392764408 0.099508307,0.7295258381 0.760932074,0.4255191354 2.0693936274,0.1533489369 2.1915073177,-0.8486664631 C 46.4536275425,35.547894345 45.2245438065,35.8097912102 44.80078125,35.23046875 44.710540919,34.6421439337 45.6471813806,34.6075763383 45.890625,35.03125 46.2553826259,35.2746585083 46.6962675283,34.8251629643 46.275390625,34.537109375 45.8796035386,34.1767633115 45.3051911555,34.1814013209 44.826171875,34.21875 Z m -3.33984375,0.080078125 c -0.3927805739,-0.052604492 -1.1654112671,-0.015806262 -0.9735399207,0.5976516484 0.1259105732,0.775799476 -0.2239901351,1.6942182556 0.1848890886,2.3555622321 0.6870421153,0.2761480272 1.6105936072,0.1552734502 2.1800468986,-0.3297962179 0.8071326214,-0.851460154 0.3115112906,-2.6093842574 -0.9751503623,-2.6130578356 -0.150023159,-0.016239942 -0.2635246617,-0.034905447 -0.4162457042,-0.010359827 z m 6.203125,0.0234375 c -0.5626428471,0.3535189101 -0.088831701,1.1033254331 -0.2488704567,1.6233989421 0.036114273,0.4629352324 -0.2232293721,1.2686383215 0.3309017067,1.4723041829 0.4548568805,-0.06149607 0.3627707943,-0.5569020013 0.373046875,-0.85546875 0.3404732164,-0.5417030918 1.1317632897,-0.029613264 1.5669699874,-0.4743431064 0.7286935143,-0.5379719832 0.2464782208,-1.8824395863 -0.6967500515,-1.7501394745 -0.4210068224,-0.031759185 -0.8984018265,-0.064442834 -1.3252980609,-0.015751794 z m 0.806640625,0.431640625 c 0.5149769736,-0.1517218672 1.1766555328,0.5697238628 0.65625,0.953125 -0.400581567,0.3327619069 -1.2126700041,0.1411390817 -1.052734375,-0.482421875 -0.034960225,-0.2478728368 0.1340234725,-0.4786619725 0.396484375,-0.470703125 z M 41.439453125,34.765625 c 1.19692283,-0.2321547839 1.5514641828,1.7943017249 0.4453125,2.09375 -0.5010669771,0.1805354943 -0.8475893486,-0.3569897426 -0.7140512239,-0.8068097658 0.1417988184,-0.4070708186 -0.1598099874,-0.9613350651 0.1964730989,-1.2693621092 0.031024587,0.034300022 0.046682336,-0.02204495 0.072265625,-0.017578125 z" />
      <path
         id="path11"
         style="font-size:4.9389px;font-family:'Rounds Black';-inkscape-font-specification:'Rounds Black, ';letter-spacing:0.0529167px;fill:#ffffff;stroke-width:0"
         d="m 87.23828125,34.265625 c -0.502492414,0.097896857 -1.474093749,-0.3139778692 -1.580078125,0.4375 0.086426982,0.8014707527 -0.022449406,1.5971903233 0.033203125,2.419921875 0.1014460961,0.6787289531 1.0966938894,0.1892398505 0.732421875,-0.333984375 -0.2255314479,-0.5582904766 0.6645686468,-0.8292662908 0.853515625,-0.275390625 0.2623209772,0.3916643763 0.6317351042,1.2184524367 1.2109375,0.826171875 0.3691291425,-0.5638847455 -0.7567894213,-0.9050520312 -0.5,-1.435546875 0.7401257076,-0.3324205086 0.4868116475,-1.4307675145 -0.255859375,-1.599609375 -0.1787928399,-0.056364022 -0.3153986499,-0.063108952 -0.494140625,-0.0390625 z m -0.451171875,0.49609375 c 0.3816470776,-0.090030313 1.0398838503,0.2654924701 0.720703125,0.69921875 -0.3163904682,0.3362116691 -1.2184770857,0.2937111079 -1.06640625,-0.326171875 -0.032859406,-0.2044130106 0.1321854096,-0.4026410936 0.345703125,-0.373046875 z" />
      <path
         id="path9"
         style="font-size:4.9389px;font-family:'Rounds Black';-inkscape-font-specification:'Rounds Black, ';letter-spacing:0.0529167px;fill:#ffffff;stroke-width:0"
         d="m 82.865234375,34.26171875 c -0.5947902992,-0.1152215382 -0.7250118187,0.5295932564 -0.6358307446,0.966808287 0.1867866352,0.6856452673 -0.2675462436,1.5211638854 0.2022369946,2.107410463 0.7583956928,0.1839220551 1.6042886305,0.05730671 2.369140625,0.029296875 0.373438223,-0.3440719427 -0.1187035085,-0.7995841083 -0.515625,-0.677734375 -0.4056721732,0.028010297 -1.1331451657,0.2861183367 -1.267578125,-0.294921875 0.1803482005,-0.6673380445 1.1967839822,0.1341937245 1.408203125,-0.517578125 -0.022214631,-0.6021635427 -0.805598953,-0.2195441841 -1.1755402704,-0.3389952982 -0.4715904312,-0.1306358577 -0.082485,-0.7586921896 0.3048321458,-0.6287547518 0.4336606816,0.00260242 1.2882104463,0.3298652117 1.3296924996,-0.366234325 -0.1315585318,-0.5275515166 -0.8414074352,-0.1718723728 -1.2236754576,-0.2830070957 -0.2652247254,-0.00997559 -0.5309353504,-0.017112429 -0.7958557924,0.00371022 z" />
      <path
         id="path8"
         style="font-size:4.9389px;font-family:'Rounds Black';-inkscape-font-specification:'Rounds Black, ';letter-spacing:0.0529167px;fill:#ffffff;stroke-width:0"
         d="m 80.65625,34.26953125 c -0.4574700662,0.4416303263 -0.075385502,1.1314101718 -0.1746430143,1.6953899967 0.023129618,0.4871480886 -0.2793486635,1.3140616864 0.3504242643,1.5057818783 0.7349021853,-0.1302350304 0.2842506617,-0.9888038968 0.4016761405,-1.4826776369 0.00303215,-0.5700978284 0.1528166977,-1.2808069896 -0.2024573905,-1.7497442381 -0.1183285717,-0.021468615 -0.274128183,-0.056721575 -0.375,0.03125 z" />
      <path
         id="path7"
         style="font-size:4.9389px;font-family:'Rounds Black';-inkscape-font-specification:'Rounds Black, ';letter-spacing:0.0529167px;fill:#ffffff;stroke-width:0"
         d="m 79.025390625,34.265625 c -0.5956905945,0.068097314 -1.3290127911,-0.1859004925 -1.8187065163,0.170179247 -0.2524610588,0.712372863 0.055189425,1.5034222326 -0.1031684837,2.230211378 -0.1504352883,0.4113709044 0.2769445816,1.0996888468 0.71875,0.6640625 0.2647435659,-0.3003464441 -0.1903129977,-0.8664516541 0.328125,-0.9921875 0.3712020593,-0.08178008 1.1405565706,0.1669783197 1.015625,-0.46875 -0.2257290335,-0.562389865 -0.8572339116,0.1504241921 -1.150390625,-0.3203125 -0.3373489211,-0.3427981418 0.090661569,-0.7734072073 0.4846087758,-0.6291669436 0.4129777178,0.016260556 1.2090797355,0.2295792268 1.2771099742,-0.3708330564 -0.091246477,-0.3419220845 -0.4821288364,-0.3297534114 -0.751953125,-0.283203125 z" />
      <path
         id="path6"
         style="font-size:4.9389px;font-family:'Rounds Black';-inkscape-font-specification:'Rounds Black, ';letter-spacing:0.0529167px;fill:#ffffff;stroke-width:0"
         d="m 75.630859375,34.21875 c -0.6153821965,0.3606704955 -0.1458242643,1.1669452647 -0.268953715,1.736601115 0.027341122,0.4936821031 -0.2777682158,1.3125616737 0.34512559,1.517305135 0.7032621002,-0.09308213 0.3208524975,-0.91372445 0.40625,-1.373046875 -0.010491789,-0.6126166294 0.1459062588,-1.3231240429 -0.166015625,-1.84765625 C 75.8467443128,34.21394436 75.7371537666,34.2008632091 75.630859375,34.21875 Z" />
      <path
         id="path5"
         style="font-size:4.9389px;font-family:'Rounds Black';-inkscape-font-specification:'Rounds Black, ';letter-spacing:0.0529167px;fill:#ffffff;stroke-width:0"
         d="m 72.451171875,34.224609375 c -0.5620397953,0.2227371427 -0.2135178418,0.9725044187 -0.2857133596,1.431890581 0.072849073,0.5404334691 -0.2338796626,1.2847014538 0.1827597036,1.6830746017 0.7035302012,0.1824433166 1.4608852434,0.046509281 2.163500531,0.031519192 0.3907069399,-0.3462766143 -0.1053275935,-0.8143676842 -0.505859375,-0.65625 -0.4279554889,0.110579657 -1.2604209299,0.080991721 -1.1074611942,-0.5728102324 -0.00702398,-0.6257744483 0.208327028,-1.3393574127 -0.1288669308,-1.8881272676 -0.097272802,-0.046753171 -0.2145709385,-0.053632008 -0.318359375,-0.029296875 z" />
      <path
         id="path3"
         style="font-size:4.9389px;font-family:'Rounds Black';-inkscape-font-specification:'Rounds Black, ';letter-spacing:0.0529167px;fill:#ffffff;stroke-width:0"
         d="m 69.02734375,34.236328125 c -0.7657613589,0.1809817158 -0.2564650466,1.075670165 -0.4015612322,1.6101794846 0.017780693,0.5264301655 -0.1772058633,1.2162666036 0.2238268572,1.6046642654 0.4922859288,0.1285714884 0.6790270071,-0.4258968332 0.529296875,-0.78515625 0.1876662433,-0.5706215471 0.9284160752,-0.1371427951 1.3231135937,-0.4049425 1.0086560344,-0.2852009135 0.7672399225,-1.9941591023 -0.3152854992,-1.9565343736 -0.4419759734,-0.085049585 -0.9061311302,-0.022813222 -1.3593905945,-0.068210626 z m 0.83984375,0.572265625 c 0.4977567538,-0.065019897 0.9685273804,0.6516776033 0.40234375,0.91015625 -0.3402733505,0.1742082701 -1.0372487151,0.1303661472 -0.8729040249,-0.4043929486 -0.078128597,-0.3516037251 0.098962004,-0.5576474291 0.4705602749,-0.5057633014 z" />
      <path
         id="path2"
         style="font-size:4.9389px;font-family:'Rounds Black';-inkscape-font-specification:'Rounds Black, ';letter-spacing:0.0529167px;fill:#ffffff;stroke-width:0"
         d="m 66.833984375,34.16015625 c -0.8413398132,0.1709725325 -0.5699043265,1.2548931271 -1.11328125,1.677734375 -0.4234287762,-0.00780402 -0.3939598324,-0.6973380799 -0.5761254255,-0.9972637711 -0.061569846,-0.5668525795 -0.8389647885,-0.970915043 -1.1738745745,-0.3835956039 -0.2955464843,0.7007815621 -0.1772169162,1.4967940432 -0.4375,2.22265625 -0.1730962135,0.3679140737 0.1289402336,1.0186112235 0.568359375,0.6953125 0.4741405189,-0.4054116913 0.067330049,-1.2944142613 0.59375,-1.62890625 0.5635258066,0.2468676592 0.2638668029,1.2643754513 0.95703125,1.36328125 0.777597691,-0.064060922 0.4091764897,-1.2480140415 1.103515625,-1.40625 0.3565848458,0.5368342685 -0.044015423,1.5137569679 0.701171875,1.767578125 0.6980848115,-0.1508213364 0.2346808652,-1.0054074515 0.2110465025,-1.4715092016 -0.1449757805,-0.6051129611 0.0055885,-1.5461118378 -0.6719840025,-1.8370845484 -0.053533072,-0.010400633 -0.1083771522,-0.00978485 -0.162109375,-0.00195313 z" />
      <path
         id="text3"
         style="font-size:4.9389px;font-family:'Rounds Black';-inkscape-font-specification:'Rounds Black, ';letter-spacing:0.0529167px;fill:#ffffff;stroke-width:0"
         d="m 61.296875,34.166015625 c -0.8347756791,0.192491369 -0.7857841066,1.2798926401 -1.119140625,1.90625 -0.1560882449,0.4133295692 -0.679147283,1.1280858742 -0.06640625,1.390625 0.5986486008,0.031103098 0.5126638294,-1.0195615811 1.16796875,-0.798828125 0.4333725119,-0.085219155 0.9951648841,0.067888321 1.00390625,0.58984375 0.247788207,0.4741535542 1.0771984701,-0.00276427 0.6729206002,-0.4529927153 -0.4248241685,-0.8454357879 -0.4758561975,-1.9723448431 -1.2328441771,-2.5936133519 -0.1342855541,-0.054310363 -0.2845350682,-0.04387405 -0.4264045481,-0.041284558 z m 0.12890625,0.875 c 0.3913674321,0.2176131134 0.6102558418,1.1382756455 -0.041015625,1.107421875 -0.4958613598,0.074301746 -0.4231117176,-0.5511825206 -0.19921875,-0.80078125 0.053096798,-0.094007155 0.088921501,-0.3612018091 0.240234375,-0.306640625 z" />
      <path
         id="text17"
         style="font-size:14.1111px;font-family:'Magnolia Script';-inkscape-font-specification:'Magnolia Script';letter-spacing:0.0529167px;display:inline;stroke-width:0"
         d="m 62.548828125,20.015625 c -0.4276799183,0.2201259653 -0.062939295,0.7947277978 -0.2808635595,1.1554958958 -0.4696533203,2.7026484721 -0.9012784686,5.426417324 -1.4496051905,8.1062228542 -0.8299763627,0.61401376 -1.7854514145,1.0230894757 -2.724609375,1.443359375 0.4043605696,-1.9921510133 0.6110324955,-4.0238111208 1.130859375,-5.9921875 -0.6352998388,-0.2196270386 -1.5225829155,0.1504468061 -1.53125,0.896484375 -0.891587395,-1.446979762 -3.0819992241,-1.004656481 -3.943707687,0.2507051051 -0.7423622327,1.0576788479 -0.9357573225,2.3829102282 -0.941057938,3.6360136449 -0.5038298586,1.2456114839 -2.6823595871,1.3399821375 -3.0367449374,-0.0640208 -0.2451214384,-0.568400168 -0.5520746557,-1.1897013323 -0.4866925626,-1.8129323252 0.8787810622,-0.7706563515 2.3991790531,-1.2826063487 2.408203125,-2.66015625 -0.1438894939,-0.3584260549 -0.9521639433,-0.4779188209 -0.7763429628,0.080464215 -0.015431066,1.1046240214 -0.8931781673,1.9865312743 -1.8213132872,2.4683639098 -0.5359272154,-0.9091441339 -0.342263971,-2.3403538009 -1.46484375,-2.8203125 -0.426764696,-0.090987002 -1.0206231792,0.033341324 -1.158203125,0.505859375 0.911923958,0.1161911098 0.8779159615,1.280168687 1.150390625,1.943359375 0.2198839175,0.5016785009 0.5486966424,1.3162301526 -0.169921875,1.591796875 -0.7637702062,0.537615983 -1.9188816873,1.1647087484 -1.767578125,2.263671875 0.2083636,0.3484911369 0.9453753092,0.3422898583 0.7542067989,-0.1956146 0.040657823,-0.9972146464 0.7756149151,-1.8418035383 1.6344650761,-2.282901025 0.2530352079,1.138103305 0.8303539959,2.6218803565 2.173828125,2.69921875 1.1168443373,0.078321618 2.0699167814,-0.7111473479 2.607421875,-1.64453125 0.00864825,1.6517459736 2.5363971983,2.2539523914 3.30078125,0.81640625 0.058585819,-0.2981512067 0.6844342286,-0.7005484791 0.755859375,-0.22265625 0.1084972294,0.8619756162 -0.6032332586,1.5770542586 -1.3913357251,1.7725770381 -1.2220468239,0.664455249 -2.6527659141,1.7467000198 -2.5227267749,3.2879698369 0.3660181506,1.2173387895 2.0843370382,1.1622940432 2.8898041953,0.4221175412 1.4834398613,-1.0131659061 1.7636695019,-2.9007662142 2.1889891302,-4.5039605838 0.568484127,-0.7615091621 1.6603583912,-0.8095011442 2.2923004245,-1.5197194574 0.1596515694,-0.2061139991 0.6808306924,-0.2461987974 0.4921875,0.150390625 -0.056746546,1.1593257186 1.4310875909,1.8994301132 2.3354476408,1.2144671351 0.6675316968,-0.3089072219 1.1389795565,-0.9151377007 1.4809586092,-1.5484515101 0.3266100224,1.6483893594 2.4135879629,2.2019885717 3.767578125,1.51953125 1.1189103405,-0.4025156645 1.6842631999,-1.5764901808 2.203125,-2.55078125 0.7389493267,-0.097387423 1.4037357099,-0.4957893225 1.921875,-1.01953125 -0.2021622708,1.2456797886 -0.2373886925,2.9369662878 1.0546875,3.640625 1.6223883782,0.6975800178 3.2662435256,-0.807180693 3.6998502143,-2.2867699624 0.076750179,-0.4063213974 0.4536964172,-0.9587122391 0.8954654226,-0.5914673877 0.4610594689,0.1822057168 1.0764184055,0.013584081 1.4456999881,0.3860498501 -0.086987877,1.8961977572 2.1360862925,3.1771410758 3.7975658769,2.5832640114 0.876879277,-0.1730025335 1.7793043287,-0.5973355995 2.2571216231,-1.3859983864 -1.186886426,1.0826810194 -3.4101606256,1.3058862055 -4.390625,-0.162109375 -0.2873692684,-0.3868803958 -0.5599647137,-1.3447930377 0.1473714791,-1.4032144028 1.3028084476,-0.2937767658 2.9375852168,-0.6431758772 3.4639566459,-2.0499105972 0.1436542731,-1.1625288099 -1.3152420509,-1.7085743057 -2.2236058771,-1.4130477582 -1.6838747495,0.2403640752 -3.068531764,1.8210630636 -3.0517847479,3.5282821332 -0.6543324379,0.00833286 -1.5857243022,-0.022383524 -1.869140625,-0.732421875 0.1226600201,-0.9109420617 0.6431832691,-2.0011558983 -0.072265625,-2.783203125 -0.7182089865,-0.2727617789 -1.2446244168,0.6458668186 -0.9536399362,1.2344989974 0.091050337,0.8085329607 0.8713558902,1.6337169459 0.3999048227,2.4903061054 -0.2481611941,1.0769819933 -1.2489687306,2.3311889866 -2.478243202,1.9638220691 -1.1380262117,-0.5120262444 -1.0687928926,-2.0062572453 -0.8625541108,-3.0389857461 0.095073103,-0.8327178019 0.4845501082,-1.7772485527 0.1488263378,-2.5420831884 -0.2959659274,-0.1939509803 -1.1172265788,-0.3314654311 -1.1282608313,0.1196667125 0.011679685,0.7993347051 -0.1675037526,1.5939398967 -0.3291580802,2.3684781751 -0.5083385191,0.5714868102 -1.2376578233,0.9234499136 -1.99609375,0.99609375 0.3876253315,-1.2607774264 0.066652471,-3.0790484266 -1.374310283,-3.5055387736 C 66.9298586135,24.0839332947 64.4626774376,26.2087981158 64.67578125,28.5125 c 0.085597546,0.6551212186 -0.06878571,1.3926123108 -0.70703125,1.71015625 -0.5344490922,0.4204881173 -1.6216285669,0.3897169708 -1.7219146977,-0.4361094993 -0.2159981887,-1.3082900574 0.4349463556,-2.562062847 0.4911290293,-3.8626898475 0.3100781529,-1.8817315924 0.804125662,-3.7565715544 0.8460200434,-5.6601850282 C 63.3352330931,19.9453888446 62.8940491681,20.0701418953 62.548828125,20.015625 Z M 33.23828125,21.169921875 c -1.3175375763,-0.03200654 -3.0706873041,0.610653275 -3.1705168584,2.1482899659 -0.07230659,0.9495916993 1.4220600739,1.6170963841 1.9830168584,0.7931162841 -0.95906058,-0.2078873861 -0.8865116208,-1.6239707593 -0.1906098938,-2.1101713562 0.5005080673,-0.4690346626 1.3409127755,-0.7408578933 1.9601411438,-0.4503755188 0.1065672166,0.7709922063 -0.2353840845,1.5241574562 -0.2649711159,2.2961620606 -0.3658047225,2.3324799006 -0.9550536346,4.6349049522 -1.0963570091,6.9987598144 0.1993849473,0.5445450285 1.5282052857,0.6388903829 1.3494177666,-0.1706898479 0.1137835977,-1.486540533 0.4383357202,-2.9675207156 0.7599572334,-4.4152476521 0.8480710849,-0.6545565521 1.9836271068,0.4906006394 2.783203125,-0.271484375 0.2162154204,-0.5122162181 -0.710060295,-0.1865995842 -0.9760637523,-0.2660908139 -0.5351010327,-0.059066465 -1.1918476873,0.1630889422 -1.6587018727,-0.1479716861 -0.1947605078,-0.4711870181 0.1917674146,-0.9766079165 0.167419799,-1.4712075209 0.1412617335,-0.8019490668 0.2840639999,-1.6036336989 0.424377076,-2.4057456041 1.4221218903,0.4894114184 3.0598914446,1.330786634 4.5078125,0.474609375 0.2909899294,-0.1886464361 0.4272447952,-1.0424739916 -0.109375,-0.810546875 -2.1576391451,0.3834569386 -4.3086372751,-0.2732781876 -6.46875,-0.19140625 z m 8.59375,3.533203125 c -2.3800394366,0.3763275598 -3.8242433057,3.4210361948 -2.6640625,5.494140625 0.5175092008,0.9209893155 1.6380216329,1.2057626113 2.5850659028,1.0080129562 1.9004225153,-0.2919802235 3.2213850153,-2.2324617306 3.0723973323,-4.0864205898 0.015017397,-1.2078376458 -0.9269734801,-2.5387769935 -2.2516283986,-2.4253087076 C 42.318255532,24.6685591925 42.0835996573,24.6712052156 41.83203125,24.703125 Z M 68.171875,24.869140625 c 0.7480817163,-0.026321779 1.3996623899,0.9274285035 0.9921875,1.578125 -0.8609199327,0.2784666347 -0.5537387663,1.423921908 -0.00390625,1.8359375 -0.2412807496,1.1017591889 -0.6859530935,2.5597390266 -1.986328125,2.75 C 66.0830809927,30.999640526 65.7625792685,29.6429327001 66,28.771484375 c 0.1261204012,-1.4083465304 0.4026664161,-3.1171795033 1.787109375,-3.837890625 0.1269773308,-0.03016911 0.255947197,-0.047510412 0.384765625,-0.064453125 z m -25.83984375,0.00390625 c 1.1135223821,0.091546038 1.3320378835,1.4785186565 1.119140625,2.359375 -0.1610079197,1.3819974409 -0.4286235266,3.0880088334 -1.8203125,3.765625 -0.9416730971,0.2627509296 -1.7618337451,-0.8177827598 -1.4905265996,-1.6917830811 0.00901351,-1.5500387931 0.2874532941,-3.3971098719 1.6741718656,-4.3204190039 0.1617064604,-0.073808964 0.3403222618,-0.1101405934 0.517526609,-0.112797915 z m 40.90625,0.01953125 c 0.9053088382,0.1121348154 0.863378994,1.389971403 0.318359375,1.892578125 -0.6062315709,0.8308830007 -1.6363349901,1.1563108065 -2.59375,1.37890625 0.1047778361,-1.3543532973 0.6522461979,-3.1726383077 2.275390625,-3.271484375 z M 56.443359375,25.140625 c 0.9859585275,-0.043765225 1.470536905,1.2437241306 0.947359037,1.9873723566 -0.311803278,1.2585041401 -0.6783414694,2.7784426237 -1.976655912,3.3641901434 -0.9724875128,0.1700902645 -1.5267408647,-1.036511401 -1.2440641203,-1.8418758323 0.069710366,-1.4265704228 0.6442780515,-3.2507950648 2.2733609953,-3.5096866677 z m 0.068359375,6.603515625 c 0.061392067,1.1818358265 -0.4045054337,2.3813191637 -1.0813301497,3.3315388205 -0.4464040668,0.6292566022 -1.6280708438,1.0159410885 -2.0671073503,0.1801799295 -0.3707322316,-1.0042541311 0.566943551,-1.9416549873 1.3023697231,-2.4913048127 0.5738403449,-0.4184071582 1.2181872404,-0.7301872264 1.8323959019,-1.0868201873 z" />
    </g>
  </g>
</svg>
